<?xml version="1.0" standalone="no"?>
<!DOCTYPE svg PUBLIC "-//W3C//DTD SVG 20010904//EN"
 "http://www.w3.org/TR/2001/REC-SVG-20010904/DTD/svg10.dtd">
<svg version="1.0" xmlns="http://www.w3.org/2000/svg"
 width="800.000000pt" height="800.000000pt" viewBox="0 0 800.000000 800.000000"
 preserveAspectRatio="xMidYMid meet">
<metadata>
Created by potrace 1.14, written by Peter Selinger 2001-2017
</metadata>
<g transform="translate(0.000000,800.000000) scale(0.100000,-0.100000)"
fill="#000000" stroke="none">
<path d="M4588 5698 c-17 -3 -38 -14 -45 -24 -11 -14 -13 -332 -13 -1674 0
-1653 0 -1656 20 -1678 15 -16 33 -22 65 -23 25 -1 53 -2 63 -2 45 -2 82 13
95 40 11 23 13 278 13 1486 -1 801 2 1457 6 1457 6 0 246 -324 273 -369 6 -9
13 -18 16 -21 4 -4 330 -451 1184 -1626 563 -774 689 -943 710 -954 25 -14
181 -18 228 -6 17 4 32 17 37 32 15 39 13 3296 -2 3329 -13 29 -42 39 -115 38
-72 -1 -98 -9 -109 -35 -7 -15 -10 -560 -10 -1495 1 -810 0 -1473 0 -1473 -1
0 -40 53 -88 118 -47 64 -148 201 -223 304 -76 102 -145 196 -153 208 -8 12
-23 31 -32 43 -14 17 -172 232 -253 342 -8 12 -71 97 -140 190 -69 94 -131
179 -139 190 -8 11 -43 58 -78 105 -35 47 -124 168 -198 270 -74 102 -141 192
-147 200 -7 8 -173 233 -369 500 -196 267 -366 496 -379 509 -20 20 -33 23
-103 25 -45 0 -96 -2 -114 -6z"/>
<path d="M2265 5689 c-27 -5 -67 -11 -87 -14 -49 -6 -176 -40 -268 -72 -230
-78 -460 -222 -636 -397 -150 -150 -241 -275 -325 -446 -100 -202 -143 -345
-175 -575 -9 -59 -8 -327 0 -370 3 -16 8 -50 12 -75 9 -69 11 -80 32 -160 44
-161 109 -308 208 -469 34 -56 131 -187 159 -217 5 -6 24 -26 40 -45 17 -19
59 -59 95 -89 35 -30 73 -63 85 -73 11 -10 36 -28 55 -40 19 -12 42 -27 50
-34 37 -31 163 -106 245 -146 136 -67 320 -125 445 -142 25 -3 63 -8 85 -12
56 -8 338 -8 408 1 84 10 174 28 297 61 101 26 314 122 410 184 132 85 318
248 417 366 123 145 165 234 131 276 -14 17 -103 74 -128 81 -29 10 -70 -23
-119 -95 -94 -138 -271 -309 -427 -409 -162 -104 -398 -186 -614 -214 -53 -6
-272 -7 -335 0 -228 24 -470 114 -679 254 -107 71 -266 221 -338 317 -231 310
-335 712 -278 1070 7 39 13 79 15 90 1 11 9 40 16 65 7 25 13 51 15 57 1 7 15
46 30 85 131 350 403 642 741 799 137 64 162 73 298 106 175 43 375 49 599 18
151 -21 376 -106 526 -199 168 -104 314 -243 433 -412 77 -110 94 -116 185
-58 67 43 72 49 72 90 0 57 -137 242 -277 374 -90 84 -197 170 -213 170 -5 0
-10 3 -10 8 0 4 -20 18 -45 32 -25 14 -45 28 -45 31 0 4 -15 12 -32 20 -18 7
-35 15 -38 19 -15 17 -282 123 -345 136 -5 1 -30 7 -55 14 -25 6 -61 13 -80
17 -19 3 -68 11 -108 18 -82 14 -370 16 -447 4z"/>
</g>
</svg>
